<svg xmlns="http://www.w3.org/2000/svg" width="25" height="25" viewBox="0 0 25 25">
  <g fill="#FFF">
    <path d="M21.302521,3.65546218 C18.9443277,1.29726891 15.8140756,0 12.4789916,0 C9.14390756,0 6.01365546,1.29726891 3.65546218,3.65546218 C1.29726891,6.01365546 0,9.14390756 0,12.4789916 C0,15.8140756 1.29726891,18.9443277 3.65546218,21.302521 C6.01365546,23.6607143 9.14390756,24.9579832 12.4789916,24.9579832 C15.8140756,24.9579832 18.9443277,23.6607143 21.302521,21.302521 C23.6607143,18.9443277 24.9579832,15.8140756 24.9579832,12.4789916 C24.9579832,9.14390756 23.6607143,6.01365546 21.302521,3.65546218 Z M20.2993697,20.2993697 C18.2090336,22.3897059 15.4306723,23.539916 12.4789916,23.539916 C9.52731092,23.539916 6.74894958,22.3897059 4.65861345,20.2993697 C0.346638655,15.987395 0.346638655,8.97058824 4.65861345,4.65861345 C6.74894958,2.56827731 9.52731092,1.41806723 12.4789916,1.41806723 C15.4306723,1.41806723 18.2090336,2.56827731 20.2993697,4.65861345 C24.6113445,8.97058824 24.6113445,15.987395 20.2993697,20.2993697 Z"/>
    <path d="M17.9779412,6.98004202 C17.6995798,6.70168067 17.2531513,6.70168067 16.9747899,6.98004202 L12.4789916,11.4758403 L7.98319328,6.98004202 C7.70483193,6.70168067 7.25840336,6.70168067 6.98004202,6.98004202 C6.70168067,7.25840336 6.70168067,7.70483193 6.98004202,7.98319328 L11.4758403,12.4789916 L6.98004202,16.9747899 C6.70168067,17.2531513 6.70168067,17.6995798 6.98004202,17.9779412 C7.11659664,18.1144958 7.30042017,18.1880252 7.4789916,18.1880252 C7.65756303,18.1880252 7.84138655,18.1197479 7.97794118,17.9779412 L12.4737395,13.4821429 L16.9695378,17.9779412 C17.1060924,18.1144958 17.289916,18.1880252 17.4684874,18.1880252 C17.6523109,18.1880252 17.8308824,18.1197479 17.967437,17.9779412 C18.2457983,17.6995798 18.2457983,17.2531513 17.967437,16.9747899 L13.4821429,12.4789916 L17.9779412,7.98319328 C18.2563025,7.70483193 18.2563025,7.25840336 17.9779412,6.98004202 Z"/>
  </g>
</svg>
