<svg xmlns="http://www.w3.org/2000/svg" width="100" height="100" viewBox="0 0 100 100">
  <path fill="#FFF" fill-rule="evenodd" d="M50,100 C45.4,100 40.967,99.4 36.7,98.2 C32.433,97 28.45,95.317 24.75,93.15 C21.05,90.983 17.683,88.383 14.65,85.35 C11.617,82.317 9.017,78.95 6.85,75.25 C4.683,71.55 3,67.567 1.8,63.3 C0.6,59.033 0,54.6 0,50 C0,45.4 0.6,40.967 1.8,36.7 C3,32.433 4.683,28.45 6.85,24.75 C9.017,21.05 11.617,17.683 14.65,14.65 C17.683,11.617 21.05,9.017 24.75,6.85 C28.45,4.683 32.433,3 36.7,1.8 C40.967,0.6 45.4,0 50,0 C56.867,0 63.35,1.317 69.45,3.95 C75.55,6.583 80.85,10.15 85.35,14.65 C89.85,19.15 93.417,24.45 96.05,30.55 C98.683,36.65 100,43.133 100,50 C100,54.6 99.4,59.033 98.2,63.3 C97,67.566 95.317,71.55 93.15,75.25 C90.983,78.95 88.383,82.317 85.35,85.35 C82.317,88.383 78.95,90.984 75.25,93.15 C71.55,95.317 67.567,97 63.3,98.2 C59.033,99.4 54.6,100 50,100 Z M74.1,29.4 L26.7,29.4 C26.233,29.4 25.833,29.55 25.5,29.85 C25.167,30.15 25,30.567 25,31.1 L25,36.4 C25,36.667 25.1,36.8 25.3,36.8 L50.2,51 L50.4,51.1 C50.533,51.1 50.634,51.067 50.7,51 L74.8,36.8 C74.933,36.733 75.034,36.7 75.1,36.7 C75.167,36.7 75.267,36.667 75.4,36.6 C75.667,36.6 75.8,36.467 75.8,36.2 L75.8,31.1 C75.8,30.567 75.634,30.15 75.3,29.85 C74.966,29.55 74.567,29.4 74.1,29.4 L74.1,29.4 Z M40.1,50.7 C40.167,50.633 40.2,50.533 40.2,50.4 C40.2,50.2 40.133,50.1 40,50.1 L25.7,41.9 C25.5,41.833 25.333,41.833 25.2,41.9 C25.067,41.9 25,42 25,42.2 L25,63.7 C25,63.9 25.1,64.033 25.3,64.1 L25.5,64.1 C25.633,64.1 25.7,64.067 25.7,64 L40.1,50.7 L40.1,50.7 Z M57.5,52.3 C57.433,52.1 57.266,52.067 57,52.2 L51.5,55.4 C50.833,55.8 50.133,55.8 49.4,55.4 L44.6,52.7 C44.4,52.567 44.233,52.567 44.1,52.7 L25.8,69.7 C25.733,69.767 25.7,69.9 25.7,70.1 C25.7,70.167 25.766,70.267 25.9,70.4 C26.3,70.533 26.566,70.6 26.7,70.6 L73.6,70.6 C73.733,70.6 73.867,70.534 74,70.4 C74,70.133 73.966,69.967 73.9,69.9 L57.5,52.3 L57.5,52.3 Z M75.5,41.5 L75.1,41.5 L61.5,49.6 C61.368,49.6 61.3,49.7 61.3,49.9 C61.234,49.967 61.2670369,50.067 61.4,50.2 L75,64.9 C75.133,65.033 75.233,65.1 75.3,65.1 L75.5,65.1 C75.7,64.9 75.8,64.767 75.8,64.7 L75.8,41.9 C75.8,41.767 75.7,41.633 75.5,41.5 Z"/>
</svg>
