<svg xmlns="http://www.w3.org/2000/svg" width="100" height="100" viewBox="0 0 100 100">
  <path fill="#FFF" fill-rule="evenodd" d="M50,0 C77.6142375,0 100,22.3857625 100,50 C100,77.6142375 77.6142375,100 50,100 C22.3857625,100 0,77.6142375 0,50 C0,22.3857625 22.3857625,0 50,0 Z M33.516943,24.0000548 L33.5034908,24.0000548 C32.4720342,24.0000548 31.5569459,24.6655608 31.233437,25.6504411 L25.2304057,44.2386425 C25.2304057,44.2555517 25.2169536,44.269079 25.211909,44.2859881 L22.1683553,53.6891527 C21.7095295,55.1039813 22.21006,56.6549353 23.4076366,57.529215 L49.7032675,76.743054 C50.1781861,77.0887426 50.8210509,77.0853222 51.2923052,76.7345995 L77.5929807,57.529215 C78.79112,56.6545749 79.2911361,55.1024264 78.8305804,53.6874617 L75.8408355,44.4500066 C75.8249867,44.3649466 75.8007658,44.2816822 75.7685301,44.2014425 L69.7705434,25.6352229 C69.4427793,24.6526688 68.5243455,23.9930782 67.4937635,24.0000548 C66.4653542,23.9938398 65.5529876,24.662394 65.2438879,25.6487502 L59.5267153,43.340768 L41.4823096,43.340768 L35.7567294,25.6487502 C35.4487355,24.6659831 34.541633,23.9982922 33.516943,24.0000548 Z M58.6540057,46.046228 L53.5472253,61.8494965 L50.5003087,71.2611156 L42.3583823,46.046228 L58.6540057,46.046228 Z M26.9875955,47.5409947 L43.5623515,68.9090563 L24.9899482,55.3411742 C24.7354678,55.1550679 24.6294854,54.8250974 24.7276308,54.5244634 L26.9875955,47.5409947 Z M74.0130218,47.5409947 L76.2729865,54.5210816 C76.3723053,54.8218508 76.2669442,55.1526868 76.0123506,55.3394833 L76.0123506,55.3411742 L57.4382658,68.9039836 L57.5004821,68.8228198 L74.0130218,47.5409947 Z M71.7597831,46.0563735 L55.8408205,66.5637606 L54.1542546,68.7467287 L61.1830138,46.9982118 L61.4856877,46.0563735 L71.7597831,46.0563735 Z M39.5250188,46.0563735 L46.8547704,68.741656 L29.2593309,46.0563735 L39.5250188,46.0563735 Z M67.5173048,27.3903901 L72.6678047,43.340768 L62.3583972,43.340768 L67.5173048,27.3903901 Z M33.4917201,27.3903901 L38.6523092,43.340768 L28.3496278,43.340768 L33.4917201,27.3903901 Z"/>
</svg>
