<svg xmlns="http://www.w3.org/2000/svg" width="151" height="44" viewBox="0 0 151 44">
  <g fill="none" fill-rule="evenodd">
    <path fill="#FF2D20" d="M3.81065298,1 L3.81065298,21.1231172 L10.9667846,21.1231172 L10.9667846,24.5948483 L0,24.5948483 L0,1 L3.81065298,1 Z M24.4173598,11.0109146 L24.4173598,8.88736084 L28.0288975,8.88736084 L28.0288975,24.5957215 L24.418218,24.5957215 L24.418218,22.4712945 C23.9315873,23.2580223 23.2424084,23.8762279 22.3472483,24.3250382 C21.4529464,24.7747217 20.5526367,24.9991268 19.6471775,24.9991268 C18.4756592,24.9991268 17.4045567,24.7808339 16.4330119,24.3425016 C15.4860907,23.9224667 14.6344332,23.3083654 13.931198,22.5385287 C13.2344167,21.7728012 12.6842896,20.8814457 12.3090957,19.9102816 C11.9180628,18.90124 11.7208225,17.825278 11.728057,16.740668 C11.728057,15.6404715 11.9211644,14.5891727 12.3082375,13.5885178 C12.6810554,12.610718 13.2316495,11.713153 13.931198,10.9428072 C14.6346452,10.1734364 15.4862639,9.55966039 16.4330119,9.13970749 C17.4045567,8.70137525 18.4756592,8.4830823 19.6471775,8.4830823 C20.5526367,8.4830823 21.4529464,8.70748745 22.3472483,9.15717092 C23.2415502,9.6068544 23.9315873,10.2241869 24.418218,11.0109146 L24.4173598,11.0109146 Z M24.0860733,18.6625191 C24.3085005,18.0474679 24.4209872,17.3968949 24.4182679,16.7415411 C24.4182679,16.0665793 24.3066448,15.4265444 24.0860733,14.8205632 C23.879081,14.2370796 23.5644749,13.6991774 23.1591577,13.2357564 C22.754584,12.7812226 22.2642232,12.4141869 21.717289,12.156516 C21.1542736,11.8875791 20.5303221,11.7522375 19.8462927,11.7522375 C19.1605468,11.7522375 18.5417448,11.8875791 17.9898867,12.156516 C17.4497731,12.4173194 16.9656077,12.784084 16.5651832,13.2357564 C16.161211,13.6967778 15.8519004,14.2353072 15.6554327,14.81969 C15.443137,15.4369774 15.3363137,16.0866937 15.3395214,16.740668 C15.3395214,17.4147566 15.4443019,18.0556647 15.6545744,18.6616459 C15.8639887,19.2693735 16.167811,19.7967693 16.5660414,20.2464527 C16.9662978,20.698313 17.4505027,21.0651075 17.990745,21.3256931 C18.5417448,21.5955032 19.1605468,21.7299716 19.8454344,21.7299716 C20.5303221,21.7299716 21.1542736,21.5955032 21.717289,21.3256931 C22.2643553,21.0682495 22.754758,20.7011825 23.1591577,20.2464527 C23.5644668,19.7833549 23.8790786,19.2457394 24.0860733,18.6625191 L24.0860733,18.6625191 Z M30.8783047,24.5948483 L30.8783047,8.88736084 L40.6855866,8.88736084 L40.6855866,12.5031652 L34.4889843,12.5031652 L34.4889843,24.5965946 L30.8783047,24.5965946 L30.8783047,24.5948483 Z M53.7722615,11.0109146 L53.7722615,8.88736084 L57.3837993,8.88736084 L57.3837993,24.5957215 L53.7722615,24.5957215 L53.7722615,22.4712945 C53.2864891,23.2580223 52.596452,23.8762279 51.7012918,24.3250382 C50.8069899,24.7747217 49.9075385,24.9991268 49.001221,24.9991268 C47.830561,24.9991268 46.7594585,24.7808339 45.7879136,24.3425016 C44.8409925,23.9224667 43.989335,23.3083654 43.2860998,22.5385287 C42.5890118,21.7728735 42.0385908,20.8815133 41.6631393,19.9102816 C41.2723997,18.9011813 41.0754511,17.8252212 41.0829588,16.740668 C41.0829588,15.6404715 41.2760662,14.5891727 41.6631393,13.5885178 C42.0356998,12.6107862 42.5859998,11.7132258 43.2852416,10.9428072 C43.9889393,10.1733387 44.8408584,9.5595567 45.7879136,9.13970749 C46.7594585,8.70137525 47.830561,8.4830823 49.001221,8.4830823 C49.9066802,8.4830823 50.8069899,8.70748745 51.7012918,9.15717092 C52.596452,9.6068544 53.2864891,10.2241869 53.7722615,11.0109146 L53.7722615,11.0109146 Z M53.440975,18.6625191 C53.6631098,18.0474135 53.7753055,17.3968421 53.7723219,16.7415411 C53.7723219,16.0665793 53.6606884,15.4265444 53.440975,14.8205632 C53.2339828,14.2370796 52.9193766,13.6991774 52.5140595,13.2357564 C52.1094858,12.7812226 51.619125,12.4141869 51.0721908,12.156516 C50.5091754,11.8875791 49.8843656,11.7522375 49.2003362,11.7522375 C48.5154486,11.7522375 47.8966466,11.8875791 47.3447885,12.156516 C46.8046749,12.4173194 46.3205094,12.784084 45.9200849,13.2357564 C45.5158056,13.6967019 45.2062003,14.2352365 45.0094762,14.81969 C44.7974724,15.4370294 44.6909397,16.0867442 44.6944103,16.740668 C44.6944103,17.4147566 44.7983454,18.0556647 45.0094762,18.6616459 C45.2188905,19.2693735 45.5227128,19.7967693 45.9200849,20.2464527 C46.3203413,20.698313 46.8045462,21.0651075 47.3447885,21.3256931 C47.8966466,21.5955032 48.5154486,21.7299716 49.2003362,21.7299716 C49.8843656,21.7299716 50.5091754,21.5955032 51.0721908,21.3256931 C51.6192571,21.0682495 52.1096598,20.7011825 52.5140595,20.2464527 C52.9193686,19.7833549 53.2339804,19.2457394 53.440975,18.6625191 L53.440975,18.6625191 Z M71.8617059,8.88736084 L75.5195895,8.88736084 L69.5933375,24.5957215 L65.0531676,24.5957215 L59.1260573,8.88736084 L62.7839409,8.88736084 L67.3232525,20.9161755 L71.8617059,8.88736084 Z M83.3966555,8.4830823 C88.3135994,8.4830823 91.6668023,12.9170487 91.036843,18.1063087 L79.056459,18.1063087 C79.056459,19.4614713 80.4013449,22.0809867 83.5949124,22.0809867 C86.341329,22.0809867 88.1822863,19.6230081 88.1831446,19.6212617 L90.623164,21.5422397 C88.4414794,23.9111548 86.6554504,25 83.8583967,25 C78.8607769,25 75.4732437,21.7832351 75.4732437,16.7415411 C75.4732437,12.1809649 78.9740665,8.4830823 83.3957972,8.4830823 L83.3966555,8.4830823 Z M79.0658998,15.3759005 L87.720545,15.3759005 C87.6939391,15.073783 87.2244735,11.4012224 83.3674748,11.4012224 C79.5096178,11.4012224 79.093364,15.073783 79.0658998,15.3759005 Z M93.3884622,24.5948483 L93.3884622,1 L97,1 L97,24.5948483 L93.3884622,24.5948483 Z" transform="translate(54 10)"/>
    <path fill="#FF2D20" d="M42.9757522,9.9539526 C42.9916965,10.012612 43,10.0730933 43,10.1338557 L43,19.5783372 C43,19.8250775 42.8672054,20.0529654 42.6518709,20.1757187 L34.6769445,24.7395759 L34.6769445,33.7855161 C34.6769445,34.0316993 34.5453136,34.2589453 34.3305474,34.3828976 L17.6835703,43.9082925 C17.6454666,43.929812 17.603899,43.9435845 17.5623313,43.9582177 C17.5467435,43.9633824 17.5320216,43.972851 17.5155677,43.9771549 C17.3991991,44.007615 17.2768794,44.007615 17.1605107,43.9771549 C17.1414589,43.9719902 17.124139,43.9616609 17.1059532,43.9547746 C17.0678495,43.9410021 17.0280139,43.9289512 16.9916422,43.9082925 L0.348129053,34.3828976 C0.132925732,34.2600134 0,34.0322085 0,33.7855161 L0,5.45207161 C0,5.39009543 0.00865992669,5.32984081 0.0242477947,5.27130774 C0.0294437508,5.2515098 0.0415676481,5.23343341 0.0484955895,5.21363546 C0.0614854795,5.17748269 0.0736093769,5.14046914 0.0926612156,5.10689871 C0.105651106,5.08451842 0.124702944,5.06644203 0.140290812,5.04578331 C0.160208644,5.01823834 0.17839449,4.98983259 0.201776292,4.96573074 C0.221694123,4.94593279 0.247673903,4.93129952 0.270189713,4.91408392 C0.2953035,4.89342519 0.31781931,4.8710449 0.346397068,4.85469008 L0.34726306,4.85469008 L8.66945261,0.0919926541 C8.88389915,-0.030664218 9.1478002,-0.030664218 9.36224675,0.0919926541 L17.6844363,4.85469008 L17.6861683,4.85469008 C17.71388,4.87190568 17.7372619,4.89342519 17.7623756,4.91322314 C17.7848914,4.93043874 17.8100052,4.94593279 17.8299231,4.96486996 C17.8541709,4.98983259 17.8714907,5.01823834 17.8922745,5.04578331 C17.9069964,5.06644203 17.9269142,5.08451842 17.9390381,5.10689871 C17.958956,5.14132992 17.9702139,5.17748269 17.9840698,5.21363546 C17.9909977,5.23343341 18.0031216,5.2515098 18.0083176,5.27216853 C18.0242619,5.33082788 18.0324137,5.39130922 18.0325654,5.45207161 L18.0325654,23.1488539 L24.9674346,19.1797959 L24.9674346,10.1329949 C24.9674346,10.0727403 24.9760946,10.0116249 24.9916824,9.9539526 C24.9977444,9.93329387 25.0090023,9.91521749 25.0159302,9.89541954 C25.0297861,9.85926677 25.04191,9.82225321 25.0609619,9.78868278 C25.0739517,9.76630249 25.0930036,9.74822611 25.1077255,9.72756738 C25.1285093,9.70002241 25.1458291,9.67161666 25.1700769,9.64751481 C25.1899948,9.62771686 25.2151086,9.6130836 25.2376244,9.59586799 C25.2636041,9.57520927 25.28612,9.55282898 25.3138317,9.53647415 L25.3146977,9.53647415 L33.6377533,4.77377673 C33.8521523,4.65094313 34.1161484,4.65094313 34.3305474,4.77377673 L42.6527369,9.53647415 C42.6821807,9.55368976 42.7046965,9.57520927 42.7306763,9.59500721 C42.7523261,9.61222282 42.7774399,9.62771686 42.7973577,9.64665403 C42.8216055,9.67161666 42.8389254,9.70002241 42.8597092,9.72756738 C42.8752971,9.74822611 42.8943489,9.76630249 42.9064728,9.78868278 C42.9263906,9.82225321 42.9376485,9.85926677 42.9515044,9.89541954 C42.9592983,9.91521749 42.9705562,9.93329387 42.9757522,9.9539526 Z M41.6126797,19.1797959 L41.6126797,11.3260364 L38.7003464,12.9925071 L34.6769445,15.2950944 L34.6769445,23.1488539 L41.6135457,19.1797959 L41.6126797,19.1797959 Z M33.2904902,33.3869748 L33.2904902,25.5280506 L29.3329037,27.7746872 L18.0316994,34.1857789 L18.0316994,42.1187302 L33.2904902,33.3869748 Z M1.38732026,6.64425233 L1.38732026,33.3869748 L16.6443791,42.1178694 L16.6443791,34.1866397 L8.67378258,29.7028351 L8.6711846,29.7011136 L8.66772063,29.699392 C8.64087485,29.683898 8.61835904,29.6615177 8.59324526,29.6425805 C8.57159544,29.6253649 8.54648165,29.6115924 8.52742981,29.5926552 L8.52569783,29.5900729 C8.50318202,29.5685534 8.48759415,29.5418692 8.46854231,29.5177674 C8.45122246,29.4945263 8.43043864,29.4747283 8.41658275,29.4506265 L8.41571676,29.4480442 C8.40012889,29.4222207 8.39060297,29.3912327 8.37934507,29.3619661 C8.36808716,29.3361427 8.35336529,29.3120409 8.34643735,29.2844959 L8.34643735,29.2836351 C8.33777742,29.2509255 8.33604543,29.2164942 8.33258146,29.1829238 C8.32911749,29.1571004 8.32218955,29.131277 8.32218955,29.1054536 L8.32218955,29.103732 L8.32218955,10.6133103 L4.2996536,8.30986222 L1.38732026,6.64511311 L1.38732026,6.64425233 Z M9.01671567,1.48473519 L2.08271237,5.45207161 L9.01498369,9.41940803 L15.948121,5.45121083 L9.01498369,1.48473519 L9.01671567,1.48473519 Z M12.6227091,26.2442199 L16.6452451,23.9424933 L16.6452451,6.64425233 L13.7329117,8.310723 L9.70950981,10.6133103 L9.70950981,27.9115513 L12.6227091,26.2442199 Z M33.9841503,6.16651926 L27.051013,10.1338557 L33.9841503,14.1011921 L40.9164216,10.1329949 L33.9841503,6.16651926 Z M33.2904902,15.2950944 L29.2670883,12.9925071 L26.3547549,11.3260364 L26.3547549,19.1797959 L30.3772909,21.4815224 L33.2904902,23.1488539 L33.2904902,15.2950944 Z M17.3371732,32.9935982 L27.5065252,27.2229271 L32.5899021,24.339313 L25.6619608,20.374559 L17.6853023,24.9392769 L10.4152938,29.0994281 L17.3371732,32.9935982 Z"/>
  </g>
</svg>
