<svg xmlns="http://www.w3.org/2000/svg" width="100" height="100" viewBox="0 0 100 100">
  <path fill="#FFF" fill-rule="evenodd" d="M50,100 C22.386,100 0,77.614 0,50 C0,22.386 22.386,0 50,0 C77.614,0 100,22.386 100,50 C100,77.614 77.614,100 50,100 Z M24.182,34.22 L24.182,64.84 C24.37,65.945 24.022,67.073 23.248,67.88 L16,76.706 L16,77.87 L36.552,77.87 L36.552,76.707 L29.304,67.879 C28.524,67.073 28.154,65.952 28.304,64.839 L28.304,38.36 L46.344,77.87 L48.438,77.87 L63.933,38.36 L63.933,69.85 C63.933,70.69 63.933,70.852 63.385,71.402 L57.812,76.834 L57.812,78 L84.872,78 L84.872,76.836 L79.492,71.533 C79.017,71.17 78.782,70.573 78.88,69.981 L78.88,31.02 C78.78,30.428 79.017,29.83 79.492,29.467 L85,24.164 L85,23 L65.93,23 L52.336,57.048 L36.874,23 L16.87,23 L16.87,24.164 L23.312,31.956 C23.945,32.529 24.268,33.369 24.182,34.22 Z"/>
</svg>
