<svg xmlns="http://www.w3.org/2000/svg" xmlns:xlink="http://www.w3.org/1999/xlink" width="213" height="35" viewBox="0 0 213 35">
  <defs>
    <polyline id="october-logo-a" points="0 .355 212.75 .355 212.75 35 0 35"/>
  </defs>
  <g fill="none" fill-rule="evenodd">
    <path fill="#586667" fill-rule="nonzero" d="M26.657,17.665 C26.657,15.989 26.443,14.482 26.017,13.139 C25.592,11.799 24.979,10.659 24.181,9.729 C23.383,8.799 22.404,8.086 21.249,7.589 C20.092,7.093 18.775,6.845 17.299,6.845 C15.809,6.845 14.481,7.093 13.319,7.589 C12.154,8.086 11.174,8.799 10.374,9.729 C9.574,10.659 8.964,11.799 8.534,13.139 C8.11,14.481 7.897,15.989 7.897,17.664 C7.897,19.354 8.11,20.871 8.535,22.211 C8.963,23.554 9.575,24.691 10.375,25.621 C11.175,26.551 12.155,27.261 13.319,27.749 C14.481,28.239 15.809,28.483 17.299,28.483 C18.775,28.483 20.092,28.239 21.249,27.749 C22.404,27.262 23.383,26.552 24.182,25.622 C24.982,24.69 25.594,23.554 26.019,22.212 C26.445,20.872 26.659,19.355 26.659,17.664 M34.556,17.664 C34.556,20.116 34.14,22.396 33.311,24.504 C32.481,26.614 31.315,28.449 29.808,30.007 C28.302,31.565 26.488,32.787 24.364,33.671 C22.24,34.556 19.887,35 17.3,35 C14.713,35 12.355,34.556 10.225,33.672 C8.095,32.788 6.273,31.566 4.759,30.008 C3.242,28.45 2.072,26.615 1.242,24.506 C0.413,22.396 0,20.116 0,17.666 C0,15.216 0.414,12.936 1.243,10.823 C2.073,8.713 3.243,6.886 4.759,5.333 C6.272,3.783 8.094,2.563 10.224,1.68 C12.355,0.796 14.712,0.355 17.3,0.355 C19.887,0.355 22.24,0.8 24.363,1.692 C26.486,2.586 28.301,3.807 29.807,5.357 C31.314,6.907 32.48,8.739 33.309,10.849 C34.137,12.957 34.553,15.229 34.553,17.664"/>
    <mask id="october-logo-b" fill="#fff">
      <use xlink:href="#october-logo-a"/>
    </mask>
    <path fill="#586667" fill-rule="nonzero" d="M56.178,25.623 C55.392,26.553 54.428,27.263 53.288,27.751 C52.148,28.241 50.851,28.485 49.398,28.485 C47.928,28.485 46.62,28.241 45.475,27.752 C44.327,27.265 43.361,26.555 42.575,25.625 C41.785,24.695 41.183,23.557 40.762,22.215 C40.342,20.875 40.132,19.357 40.132,17.667 C40.132,15.991 40.342,14.484 40.762,13.141 C41.182,11.801 41.785,10.661 42.574,9.731 C43.361,8.801 44.327,8.089 45.474,7.591 C46.62,7.095 47.929,6.846 49.398,6.846 C50.851,6.846 52.148,7.096 53.288,7.591 C54.428,8.089 55.392,8.801 56.178,9.731 C56.558,10.181 56.898,10.678 57.188,11.225 C57.754,12.28 59.173,12.155 59.173,12.155 L65.607,12.155 C65.475,11.715 65.339,11.275 65.173,10.85 C64.356,8.74 63.206,6.908 61.723,5.358 C60.238,3.808 58.45,2.586 56.359,1.692 C54.265,0.8 51.947,0.355 49.397,0.355 C46.847,0.355 44.527,0.795 42.427,1.68 C40.327,2.565 38.533,3.782 37.041,5.333 C35.548,6.886 34.395,8.713 33.577,10.823 C32.761,12.935 32.352,15.215 32.352,17.665 C32.352,20.115 32.762,22.397 33.577,24.505 C34.395,26.615 35.547,28.45 37.041,30.008 C38.533,31.566 40.328,32.788 42.427,33.672 C44.527,34.556 46.847,34.999 49.397,34.999 C51.947,34.999 54.265,34.555 56.357,33.671 C58.449,32.787 60.237,31.565 61.721,30.007 C63.205,28.449 64.355,26.615 65.171,24.505 C65.338,24.078 65.475,23.638 65.606,23.198 L59.172,23.198 C58.582,23.198 57.634,23.256 57.044,24.266 C56.81,24.668 56.61,25.109 56.177,25.621" mask="url(#october-logo-b)"/>
    <path fill="#586667" fill-rule="nonzero" d="M103.1,17.665 C103.1,15.989 102.886,14.482 102.46,13.139 C102.035,11.799 101.422,10.659 100.623,9.729 C99.825,8.799 98.846,8.086 97.691,7.589 C96.534,7.093 95.218,6.845 93.741,6.845 C92.251,6.845 90.924,7.093 89.761,7.589 C88.596,8.086 87.616,8.799 86.817,9.729 C86.017,10.659 85.405,11.799 84.977,13.139 C84.553,14.481 84.339,15.989 84.339,17.664 C84.339,19.354 84.553,20.871 84.979,22.211 C85.405,23.554 86.017,24.691 86.817,25.621 C87.617,26.551 88.597,27.261 89.761,27.749 C90.924,28.239 92.251,28.483 93.741,28.483 C95.218,28.483 96.534,28.239 97.691,27.749 C98.847,27.262 99.826,26.552 100.624,25.622 C101.424,24.69 102.036,23.554 102.461,22.212 C102.887,20.872 103.101,19.355 103.101,17.664 L103.1,17.665 Z M110.997,17.664 C110.997,20.116 110.58,22.396 109.754,24.504 C108.922,26.614 107.756,28.449 106.251,30.007 C104.744,31.565 102.931,32.787 100.806,33.671 C98.683,34.556 96.33,35 93.74,35 C91.154,35 88.797,34.556 86.667,33.672 C84.537,32.788 82.714,31.566 81.202,30.008 C79.685,28.45 78.515,26.615 77.685,24.506 C76.857,22.396 76.442,20.116 76.442,17.666 C76.442,15.216 76.857,12.936 77.685,10.823 C78.515,8.713 79.685,6.886 81.202,5.333 C82.714,3.783 84.536,2.563 86.667,1.68 C88.797,0.796 91.154,0.355 93.74,0.355 C96.33,0.355 98.683,0.8 100.805,1.692 C102.929,2.586 104.743,3.807 106.25,5.357 C107.755,6.907 108.92,8.739 109.753,10.849 C110.579,12.957 110.996,15.229 110.996,17.664 L110.997,17.664 Z M119.624,20.247 L119.624,28.694 L125.084,28.694 C126.11,28.694 126.949,28.561 127.599,28.299 C128.249,28.033 128.759,27.691 129.124,27.273 C129.492,26.853 129.744,26.383 129.881,25.853 C130.019,25.327 130.088,24.791 130.088,24.249 C130.088,23.629 130.008,23.069 129.846,22.573 C129.686,22.077 129.411,21.659 129.021,21.316 C128.631,20.976 128.111,20.712 127.469,20.526 C126.829,20.34 126.019,20.246 125.039,20.246 L119.623,20.246 L119.624,20.247 Z M119.624,14.989 L123.664,14.989 C124.519,14.989 125.292,14.926 125.982,14.803 C126.669,14.678 127.255,14.463 127.737,14.153 C128.219,13.841 128.585,13.413 128.839,12.871 C129.091,12.328 129.215,11.646 129.215,10.823 C129.215,10.018 129.117,9.346 128.918,8.81 C128.718,8.277 128.411,7.847 127.998,7.52 C127.586,7.194 127.06,6.963 126.428,6.823 C125.79,6.683 125.038,6.613 124.166,6.613 L119.622,6.613 L119.622,14.989 L119.624,14.989 Z M111.867,34.626 L111.867,0.727 L124.167,0.727 C126.479,0.727 128.445,0.944 130.067,1.377 C131.687,1.813 133.012,2.424 134.037,3.217 C135.062,4.007 135.807,4.969 136.275,6.102 C136.741,7.234 136.975,8.499 136.975,9.895 C136.975,10.655 136.867,11.385 136.655,12.092 C136.439,12.799 136.103,13.462 135.643,14.082 C135.183,14.702 134.597,15.262 133.876,15.77 C133.158,16.273 132.292,16.71 131.282,17.084 C133.487,17.627 135.115,18.508 136.172,19.724 C137.228,20.944 137.755,22.504 137.755,24.414 C137.755,25.854 137.479,27.196 136.928,28.436 C136.378,29.679 135.57,30.759 134.508,31.684 C133.444,32.606 132.132,33.328 130.571,33.846 C129.011,34.366 127.229,34.626 125.223,34.626 L111.868,34.626 L111.867,34.626 Z M160.406,0.726 L160.406,6.776 L146.68,6.776 L146.68,14.686 L157.192,14.686 L157.192,20.504 L146.68,20.504 L146.68,28.576 L160.406,28.576 L160.406,34.626 L138.876,34.626 L138.876,0.726 L160.406,0.726 Z M169.65,16.665 L172.772,16.665 C173.826,16.665 174.726,16.529 175.468,16.258 C176.211,15.986 176.818,15.61 177.294,15.128 C177.768,14.648 178.112,14.086 178.326,13.443 C178.539,12.799 178.648,12.103 178.648,11.36 C178.648,9.87 178.168,8.707 177.213,7.87 C176.257,7.032 174.776,6.613 172.773,6.613 L169.65,6.613 L169.65,16.665 Z M169.65,22.085 L169.65,34.627 L161.893,34.627 L161.893,0.727 L172.773,0.727 C175.188,0.727 177.25,0.98 178.957,1.483 C180.663,1.987 182.057,2.689 183.134,3.589 C184.214,4.489 184.996,5.549 185.488,6.775 C185.976,8 186.221,9.335 186.221,10.778 C186.221,11.878 186.077,12.916 185.785,13.893 C185.495,14.87 185.063,15.775 184.49,16.605 C183.915,17.435 183.21,18.175 182.378,18.825 C181.543,19.478 180.582,20.012 179.495,20.431 C180.015,20.696 180.502,21.021 180.953,21.408 C181.403,21.796 181.799,22.27 182.137,22.828 L189.251,34.625 L182.231,34.625 C180.927,34.625 179.995,34.128 179.429,33.135 L173.874,23.295 C173.63,22.858 173.342,22.55 173.014,22.362 C172.684,22.177 172.221,22.084 171.626,22.084 L169.651,22.084 L169.65,22.085 Z M67.634,0.726 L67.634,14.318 L59.112,14.318 C58.342,14.318 57.716,14.926 57.716,15.674 L57.716,19.679 C57.716,20.427 58.341,21.034 59.112,21.034 L67.634,21.034 L67.634,34.624 L75.391,34.624 L75.391,0.726 L67.635,0.726 L67.634,0.726 Z"/>
    <path fill="#DB6A26" fill-rule="nonzero" d="M212.725,16.95 C212.182,8.1 202.542,0.44 198.57,0.357 C194.597,0.271 187.172,9.645 186.87,19.17 C186.59,28.1 194.21,34.223 197.492,35 C197.584,30.798 197.92,15.33 197.976,13.525 C198.096,9.839 198.276,4.103 198.891,3.912 C199.246,3.802 199.727,7.027 199.668,8.932 C199.656,9.297 199.652,10.474 199.652,12.146 C200.317,11.47 201.012,10.768 201.432,10.354 C202.589,9.217 203.1,9.354 202.546,10.366 C202.204,10.989 200.736,13.063 199.656,14.566 C199.662,17.596 199.676,21.408 199.69,24.961 C201.215,23.177 203.082,21.038 204.062,20.086 C206.12,18.092 206.338,18.344 205.367,20.436 C204.77,21.719 201.853,25.141 199.7,27.839 C199.714,30.992 199.724,33.643 199.726,34.909 C205.502,33.639 213.256,25.642 212.726,16.952"/>
  </g>
</svg>
