<svg xmlns="http://www.w3.org/2000/svg" width="50" height="50" viewBox="0 0 50 50">
  <path fill="#FFF" fill-rule="evenodd" d="M25,50 C11.193,50 0,38.807 0,25 C0,11.193 11.193,0 25,0 C38.807,0 50,11.193 50,25 C50,38.807 38.807,50 25,50 Z M36.592,15.58 L30.457,15.58 L29.98,13.674 C29.733,12.688 28.852,12 27.836,12 L22.966,12 C21.951,12 21.069,12.688 20.822,13.674 L20.346,15.581 L14.21,15.581 C12.992,15.581 12,16.575 12,17.791 L12,33.908 C12,35.128 12.992,36.118 14.21,36.118 L36.592,36.118 C37.812,36.118 38.802,35.128 38.802,33.908 L38.802,17.79 C38.802,16.573 37.812,15.58 36.592,15.58 Z M27.689,14.95 L23,14.95 L23.238,14 L27.451,14 L27.691,14.95 L27.689,14.95 Z"/>
</svg>
