<svg xmlns="http://www.w3.org/2000/svg" width="100" height="100" viewBox="0 0 100 100">
  <path fill="#007ACC" d="M0,50 L0,0 L50,0 L100,0 L100,50 L100,100 L50,100 L0,100 L0,50 Z M80.5873016,53.984127 C83.1269841,53.3492063 85.0634921,52.2222222 86.8412698,50.3809524 C87.7619048,49.3968254 89.1269841,47.6031746 89.2380952,47.1746032 C89.2698413,47.047619 84.9206349,44.1269841 82.2857143,42.4920635 C82.1904762,42.4285714 81.8095238,42.8412698 81.3809524,43.4761905 C80.0952381,45.3492063 78.7460317,46.1587302 76.6825397,46.3015873 C73.6507937,46.5079365 71.6984127,44.9206349 71.7142857,42.2698413 C71.7142857,41.4920635 71.8253968,41.031746 72.1428571,40.3968254 C72.8095238,39.015873 74.047619,38.1904762 77.9365079,36.5079365 C85.0952381,33.4285714 88.1587302,31.3968254 90.0634921,28.5079365 C92.1904762,25.2857143 92.6666667,20.1428571 91.2222222,16.3174603 C89.6349206,12.1587302 85.6984127,9.33333333 80.1587302,8.3968254 C78.4444444,8.0952381 74.3809524,8.14285714 72.5396825,8.47619048 C68.5238095,9.19047619 64.7142857,11.1746032 62.3650794,13.7777778 C61.4444444,14.7936508 59.6507937,17.4444444 59.7619048,17.6349206 C59.8095238,17.6984127 60.2222222,17.952381 60.6825397,18.2222222 C61.1269841,18.4761905 62.8095238,19.4444444 64.3968254,20.3650794 L67.2698413,22.031746 L67.8730159,21.1428571 C68.7142857,19.8571429 70.5555556,18.0952381 71.6666667,17.5079365 C74.8571429,15.8253968 79.2380952,16.0634921 81.3968254,18 C82.3174603,18.8412698 82.6984127,19.7142857 82.6984127,21 C82.6984127,22.1587302 82.5555556,22.6666667 81.952381,23.5396825 C81.1746032,24.6507937 79.5873016,25.5873016 75.0793651,27.5396825 C69.9206349,29.7619048 67.6984127,31.1428571 65.6666667,33.3333333 C64.4920635,34.6031746 63.3809524,36.6349206 62.9206349,38.3333333 C62.5396825,39.7460317 62.4444444,43.2857143 62.7460317,44.7142857 C63.8095238,49.6984127 67.5714286,53.1746032 73,54.2063492 C74.7619048,54.5396825 78.8571429,54.4126984 80.5873016,53.984127 Z M57.1111111,49.8095238 L57.1428571,45.7142857 L50.6349206,45.7142857 L44.1269841,45.7142857 L44.1269841,27.2222222 L44.1269841,8.73015873 L39.5238095,8.73015873 L34.9206349,8.73015873 L34.9206349,27.2222222 L34.9206349,45.7142857 L28.4126984,45.7142857 L21.9047619,45.7142857 L21.9047619,49.7301587 C21.9047619,51.952381 21.952381,53.8095238 22.015873,53.8571429 C22.0634921,53.9206349 29.984127,53.952381 39.5873016,53.9365079 L57.0634921,53.8888889 L57.1111111,49.8095238 Z" transform="matrix(1 0 0 -1 0 100)"/>
</svg>
