<svg xmlns="http://www.w3.org/2000/svg" width="49" height="49" viewBox="0 0 49 49">
  <g fill="#464342">
    <path d="M3.45555556,24.3095239 C3.45555556,32.5642857 8.2531746,39.6984127 15.2095239,43.0785714 L5.26111111,15.8222223 C4.10396826,18.415873 3.45555556,21.286508 3.45555556,24.3095239 Z M38.3888889,23.2571429 C38.3888889,20.6797619 37.4630953,18.8948413 36.6690476,17.5055556 C35.6119047,15.7873016 34.6214286,14.3329366 34.6214286,12.6150794 C34.6214286,10.6984127 36.075,8.91349206 38.1230159,8.91349206 C38.2154761,8.91349206 38.3031746,8.92539683 38.3928571,8.93015873 C34.6825397,5.53095239 29.7400794,3.45555556 24.3107143,3.45555556 C17.025,3.45555556 10.6150794,7.1936508 6.88611111,12.8555556 C7.37539683,12.8702381 7.83650794,12.8805556 8.2281746,12.8805556 C10.4095238,12.8805556 13.7861111,12.6154762 13.7861111,12.6154762 C14.9103174,12.5492063 15.0428571,14.2003968 13.9198413,14.3337301 C13.9198413,14.3337301 12.7900794,14.4662699 11.5329365,14.5321429 L19.1269841,37.1218254 L23.6904761,23.434127 L20.4416667,14.531746 C19.3186509,14.465873 18.2551587,14.3333333 18.2551587,14.3333333 C17.1309524,14.2670635 17.2630953,12.5488095 18.3861111,12.6150794 C18.3861111,12.6150794 21.8305556,12.8797619 23.8797619,12.8797619 C26.0607143,12.8797619 29.4376984,12.6150794 29.4376984,12.6150794 C30.5626984,12.5488095 30.6948413,14.2 29.5714286,14.3333333 C29.5714286,14.3333333 28.4392857,14.465873 27.1845239,14.531746 L34.7210317,36.95 L36.8011904,29.9988096 C37.7019841,27.1138889 38.388492,25.0424603 38.388492,23.256746 L38.3888889,23.2571429 Z"/>
    <path d="M24.6761904,26.1337301 L18.4190476,44.3162699 C20.2873016,44.8650794 22.2630953,45.1654761 24.3103174,45.1654761 C26.7388889,45.1654761 29.068254,44.7456349 31.2357143,43.9829366 C31.1801587,43.8940476 31.1285714,43.7992063 31.0873016,43.6960317 L24.6761904,26.1337301 Z M42.6095239,14.3039683 C42.6992063,14.968254 42.75,15.6809524 42.75,16.4484127 C42.75,18.5646826 42.3547619,20.9436509 41.1642857,23.918254 L34.7936509,42.3361111 C40.9940476,38.7210317 45.1642857,32.0035714 45.1642857,24.3099206 C45.1642857,20.6845239 44.238492,17.275 42.6095239,14.3043651 L42.6095239,14.3039683 Z"/>
    <path d="M24.3103174,0 C10.9055556,0 0,10.9047619 0,24.3095239 C0,37.7154761 10.9059524,48.6202381 24.3103174,48.6202381 C37.7142857,48.6202381 48.6218254,37.7154761 48.6218254,24.3095239 C48.6218254,10.9047619 37.7142857,0 24.3103174,0 Z M24.3103174,47.5059524 C11.5206349,47.5059524 1.11468254,37.1 1.11468254,24.3095239 C1.11468254,11.5198413 11.5194444,1.11507937 24.3099206,1.11507937 C37.0996031,1.11507937 47.5043651,11.5198413 47.5043651,24.3095239 C47.5043651,37.1 37.0996031,47.5059524 24.3099206,47.5059524 L24.3103174,47.5059524 Z"/>
  </g>
</svg>
