<svg xmlns="http://www.w3.org/2000/svg" width="150" height="35" viewBox="0 0 150 35">
  <g fill="none">
    <path fill="#00749A" d="M86.9972222,13.3963889 L81.0925,13.3963889 L81.0925,14.0227778 C82.9397222,14.0227778 83.2363889,14.4186111 83.2363889,16.7608333 L83.2363889,20.9830556 C83.2363889,23.3247222 82.94,23.7538889 81.0927778,23.7538889 C79.6747222,23.5561111 78.7177778,22.7972222 77.3983333,21.3455556 L75.8811111,19.6966667 C77.9263889,19.3327778 79.0144444,18.0466667 79.0144444,16.5952778 C79.0144444,14.7813889 77.4644444,13.3958333 74.5616667,13.3958333 L68.7561111,13.3958333 L68.7561111,14.0222222 C70.6033333,14.0222222 70.9,14.4180556 70.9,16.7602778 L70.9,20.9825 C70.9,23.3241667 70.6027778,23.7533333 68.7561111,23.7533333 L68.7561111,24.38 L75.32,24.38 L75.32,23.7536111 C73.4733333,23.7536111 73.1763889,23.3247222 73.1763889,20.9827778 L73.1763889,19.7955556 L73.7369444,19.7955556 L77.3988889,24.3802778 L86.9980556,24.3802778 C91.7147222,24.3802778 93.7602778,21.8738889 93.7602778,18.8719444 C93.7602778,15.87 91.7152778,13.3961111 86.9980556,13.3961111 L86.9972222,13.3963889 Z M73.1761111,18.7727778 L73.1761111,14.3861111 L74.5283333,14.3861111 C76.0125,14.3861111 76.6727778,15.4083333 76.6727778,16.5961111 C76.6727778,17.7508333 76.0125,18.7730556 74.5283333,18.7730556 L73.1761111,18.7730556 L73.1761111,18.7727778 Z M87.0963889,23.3583333 L86.8652778,23.3583333 C85.6780556,23.3583333 85.5130556,23.0616667 85.5130556,21.5444444 L85.5130556,14.3861111 L87.0963889,14.3861111 C90.5269444,14.3861111 91.1533333,16.8927778 91.1533333,18.8388889 C91.1533333,20.8511111 90.5266667,23.3583333 87.0963889,23.3583333 Z M50.3827778,19.9938889 L52.6588889,13.2641667 C53.3188889,11.3183333 53.0219444,10.7577778 50.9108333,10.7577778 L50.9108333,10.0972222 L57.1119444,10.0972222 L57.1119444,10.7575 C55.0341667,10.7575 54.5391667,11.2519444 53.7147222,13.6602778 L49.9536111,24.9416667 L49.525,24.9416667 L46.1602778,14.6166667 L42.7297222,24.9416667 L42.3011111,24.9416667 L38.64,13.6602778 C37.8483333,11.2519444 37.3205556,10.7575 35.4066667,10.7575 L35.4066667,10.0972222 L42.73,10.0972222 L42.73,10.7575 C40.7836111,10.7575 40.2555556,11.2191667 40.9486111,13.2641667 L43.1586111,19.9941667 L46.4905556,10.0977778 L47.1175,10.0977778 L50.3830556,19.9944444 L50.3827778,19.9938889 Z M61.5977778,24.8094444 C57.9694444,24.8094444 55.0005556,22.1377778 55.0005556,18.8716667 C55.0005556,15.6391667 57.97,12.9669444 61.5977778,12.9669444 C65.2263889,12.9669444 68.195,15.6391667 68.195,18.8719444 C68.195,22.1380556 65.2263889,24.8097222 61.5977778,24.8097222 L61.5977778,24.8094444 Z M61.5977778,13.99 C58.5633333,13.99 57.5075,16.7277778 57.5075,18.8719444 C57.5075,21.0491667 58.5630556,23.7538889 61.5977778,23.7538889 C64.6658333,23.7538889 65.7213889,21.0491667 65.7213889,18.8716667 C65.7213889,16.7272222 64.6658333,13.9897222 61.5977778,13.9897222 L61.5977778,13.99 Z"/>
    <path fill="#464342" d="M101.906667,23.7211111 L101.906667,24.3808333 L94.3527778,24.3808333 L94.3527778,23.7213889 C96.5630556,23.7213889 96.9588889,23.1608333 96.9588889,19.8616667 L96.9588889,14.5841667 C96.9588889,11.285 96.5630556,10.7575 94.3527778,10.7575 L94.3527778,10.0972222 L101.180556,10.0972222 C104.578333,10.0972222 106.459167,11.8455556 106.459167,14.1880556 C106.459167,16.4641667 104.578611,18.2452778 101.180833,18.2452778 L99.3008333,18.2452778 L99.3008333,19.8611111 C99.3008333,23.1605556 99.6966667,23.7211111 101.906944,23.7211111 L101.906667,23.7211111 Z M101.180833,11.285 L99.3008333,11.285 L99.3008333,17.0247222 L101.181389,17.0247222 C103.028611,17.0247222 103.886111,15.7380556 103.886111,14.1877778 C103.886111,12.6044444 103.028333,11.2844444 101.180556,11.2844444 L101.180833,11.285 Z M129.120278,21.2805556 L128.955278,21.8738889 C128.658056,22.9627778 128.295,23.3583333 125.953056,23.3583333 L125.491111,23.3583333 C123.775833,23.3583333 123.478889,22.9625 123.478889,20.6205556 L123.478889,19.1033333 C126.051944,19.1033333 126.25,19.3338889 126.25,21.0494444 L126.876667,21.0494444 L126.876667,16.1341667 L126.25,16.1341667 C126.25,17.8494444 126.051944,18.0802778 123.478889,18.0802778 L123.478889,14.3858333 L125.292778,14.3858333 C127.635278,14.3858333 127.997778,14.7816667 128.294722,15.8702778 L128.46,16.4966667 L128.987778,16.4966667 L128.757222,13.3958333 L119.058611,13.3958333 L119.058611,14.0222222 C120.905833,14.0222222 121.203056,14.4180556 121.203056,16.7602778 L121.203056,20.9825 C121.203056,23.125 120.950278,23.6647222 119.494167,23.7416667 C118.110278,23.5305556 117.16,22.775 115.859722,21.3452778 L114.342222,19.6961111 C116.3875,19.3322222 117.476111,18.0461111 117.476111,16.5947222 C117.476111,14.7808333 115.926111,13.3952778 113.023333,13.3952778 L107.217778,13.3952778 L107.217778,14.0216667 C109.064444,14.0216667 109.361389,14.4175 109.361389,16.7597222 L109.361389,20.9819444 C109.361389,23.3236111 109.064722,23.7527778 107.2175,23.7527778 L107.2175,24.3794444 L113.781944,24.3794444 L113.781944,23.7530556 C111.934722,23.7530556 111.6375,23.3241667 111.6375,20.9822222 L111.6375,19.795 L112.198611,19.795 L115.859722,24.3797222 L129.417222,24.3797222 L129.615278,21.2797222 L129.12,21.2797222 L129.120278,21.2805556 Z M111.637778,18.7727778 L111.637778,14.3861111 L112.99,14.3861111 C114.474444,14.3861111 115.134444,15.4083333 115.134444,16.5961111 C115.134444,17.7508333 114.474444,18.7730556 112.99,18.7730556 L111.637778,18.7730556 L111.637778,18.7727778 Z M135.816667,24.8094444 C134.497222,24.8094444 133.342222,24.1169444 132.847222,23.6877778 C132.6825,23.8530556 132.386111,24.3477778 132.32,24.8094444 L131.693056,24.8094444 L131.693056,20.2577778 L132.352778,20.2577778 C132.616667,22.4347222 134.133889,23.7211111 136.080556,23.7211111 C137.136111,23.7211111 137.993611,23.1275 137.993611,22.1377778 C137.993611,21.2805556 137.235278,20.6205556 135.8825,19.9938889 L134.001944,19.1033333 C132.6825,18.4761111 131.693056,17.3875 131.693056,15.9366667 C131.693056,14.3533333 133.1775,13.0005556 135.222778,13.0005556 C136.311667,13.0005556 137.234722,13.3966667 137.795833,13.8583333 C137.960556,13.7263889 138.125556,13.3633333 138.224722,12.9672222 L138.851111,12.9672222 L138.851111,16.86 L138.158333,16.86 C137.927778,15.3094444 137.07,14.0230556 135.322222,14.0230556 C134.398333,14.0230556 133.540278,14.5508333 133.540278,15.3758333 C133.540278,16.2333333 134.233056,16.6952778 135.816667,17.4208333 L137.630556,18.3113889 C139.213889,19.0702778 139.840556,20.2913889 139.840556,21.2808333 C139.840556,23.3586111 138.026667,24.8097222 135.816389,24.8097222 L135.816667,24.8094444 Z M145.976111,24.8094444 C144.656667,24.8094444 143.501667,24.1169444 143.007222,23.6877778 C142.842222,23.8530556 142.545556,24.3477778 142.479444,24.8094444 L141.852778,24.8094444 L141.852778,20.2577778 L142.5125,20.2577778 C142.776389,22.4347222 144.293611,23.7211111 146.240278,23.7211111 C147.295833,23.7211111 148.153333,23.1275 148.153333,22.1377778 C148.153333,21.2805556 147.395,20.6205556 146.042222,19.9938889 L144.161667,19.1033333 C142.842222,18.4761111 141.8525,17.3875 141.8525,15.9366667 C141.8525,14.3533333 143.336667,13.0005556 145.381944,13.0005556 C146.470833,13.0005556 147.393889,13.3966667 147.955,13.8583333 C148.119444,13.7263889 148.284444,13.3633333 148.382778,12.9672222 L149.01,12.9672222 L149.01,16.86 L148.3175,16.86 C148.086389,15.3094444 147.228611,14.0230556 145.480833,14.0230556 C144.557222,14.0230556 143.699167,14.5508333 143.699167,15.3758333 C143.699167,16.2333333 144.391667,16.6952778 145.975278,17.4208333 L147.789167,18.3113889 C149.3725,19.0702778 149.999167,20.2913889 149.999167,21.2808333 C149.999167,23.3586111 148.185278,24.8097222 145.975278,24.8097222 L145.976111,24.8094444 Z"/>
    <g fill="#464342">
      <path d="M2.41888889,17.0166667 C2.41888889,22.795 5.77722222,27.7888889 10.6466667,30.155 L3.68277778,11.0755556 C2.87277778,12.8911111 2.41888889,14.9005556 2.41888889,17.0166667 Z M26.8722222,16.28 C26.8722222,14.4758333 26.2241667,13.2263889 25.6683333,12.2538889 C24.9283333,11.0511111 24.235,10.0330556 24.235,8.83055556 C24.235,7.48888889 25.2525,6.23944444 26.6861111,6.23944444 C26.7508333,6.23944444 26.8122222,6.24777778 26.875,6.25111111 C24.2777778,3.87166667 20.8180556,2.41888889 17.0175,2.41888889 C11.9175,2.41888889 7.43055556,5.03555556 4.82027778,8.99888889 C5.16277778,9.00916667 5.48555556,9.01638889 5.75972222,9.01638889 C7.28666667,9.01638889 9.65027778,8.83083333 9.65027778,8.83083333 C10.4372222,8.78444444 10.53,9.94027778 9.74388889,10.0336111 C9.74388889,10.0336111 8.95305556,10.1263889 8.07305556,10.1725 L13.3888889,25.9852778 L16.5833333,16.4038889 L14.3091667,10.1722222 C13.5230556,10.1261111 12.7786111,10.0333333 12.7786111,10.0333333 C11.9916667,9.98694444 12.0841667,8.78416667 12.8702778,8.83055556 C12.8702778,8.83055556 15.2813889,9.01583333 16.7158333,9.01583333 C18.2425,9.01583333 20.6063889,8.83055556 20.6063889,8.83055556 C21.3938889,8.78416667 21.4863889,9.94 20.7,10.0333333 C20.7,10.0333333 19.9075,10.1261111 19.0291667,10.1722222 L24.3047222,25.865 L25.7608333,20.9991667 C26.3913889,18.9797222 26.8719444,17.5297222 26.8719444,16.2797222 L26.8722222,16.28 Z"/>
      <path d="M17.2733333,18.2936111 L12.8933333,31.0213889 C14.2011111,31.4055556 15.5841667,31.6158333 17.0172222,31.6158333 C18.7172222,31.6158333 20.3477778,31.3219444 21.865,30.7880556 C21.8261111,30.7258333 21.79,30.6594444 21.7611111,30.5872222 L17.2733333,18.2936111 Z M29.8266667,10.0127778 C29.8894444,10.4777778 29.925,10.9766667 29.925,11.5138889 C29.925,12.9952778 29.6483333,14.6605556 28.815,16.7427778 L24.3555556,29.6352778 C28.6958333,27.1047222 31.615,22.4025 31.615,17.0169444 C31.615,14.4791667 30.9669444,12.0925 29.8266667,10.0130556 L29.8266667,10.0127778 Z"/>
      <path d="M17.0172222,0 C7.63388889,0 0,7.63333333 0,17.0166667 C0,26.4008333 7.63416667,34.0341667 17.0172222,34.0341667 C26.4,34.0341667 34.0352778,26.4008333 34.0352778,17.0166667 C34.0352778,7.63333333 26.4,0 17.0172222,0 Z M17.0172222,33.2541667 C8.06444444,33.2541667 0.780277778,25.97 0.780277778,17.0166667 C0.780277778,8.06388889 8.06361111,0.780555556 17.0169444,0.780555556 C25.9697222,0.780555556 33.2530556,8.06388889 33.2530556,17.0166667 C33.2530556,25.97 25.9697222,33.2541667 17.0169444,33.2541667 L17.0172222,33.2541667 Z"/>
    </g>
  </g>
</svg>
