<svg xmlns="http://www.w3.org/2000/svg" width="50" height="49" viewBox="0 0 50 49">
  <path fill="#0B3954" d="M46.598,12.48 C44.365,8.653 41.336,5.624 37.51,3.39 C33.683,1.16 29.505,0.043 24.974,0.043 C20.444,0.043 16.264,1.159 12.438,3.393 C8.612,5.625 5.583,8.653 3.348,12.481 C1.12,16.306 0,20.485 0,25.015 C0,30.457 1.588,35.35 4.764,39.697 C7.94,44.043 12.042,47.051 17.072,48.72 C17.657,48.83 18.092,48.752 18.372,48.493 C18.654,48.233 18.795,47.907 18.795,47.518 L18.779,45.762 C18.766,44.656 18.761,43.692 18.761,42.868 L18.013,42.998 C17.536,43.085 16.935,43.122 16.208,43.111 C15.481,43.101 14.728,43.026 13.948,42.885 C13.168,42.745 12.441,42.419 11.768,41.91 C11.098,41.4 10.62,40.733 10.338,39.91 L10.013,39.16 C9.796,38.663 9.455,38.11 8.989,37.503 C8.524,36.896 8.052,36.483 7.575,36.267 L7.348,36.104 C7.195,35.996 7.054,35.864 6.924,35.714 C6.794,35.562 6.697,35.41 6.632,35.259 C6.566,35.105 6.62,34.981 6.794,34.883 C6.968,34.785 7.282,34.738 7.737,34.738 L8.387,34.834 C8.82,34.921 9.357,35.18 9.997,35.614 C10.635,36.048 11.161,36.611 11.573,37.304 C12.073,38.194 12.673,38.871 13.378,39.337 C14.083,39.802 14.793,40.035 15.508,40.035 C16.224,40.035 16.842,39.981 17.362,39.873 C17.882,39.765 18.37,39.603 18.825,39.385 C19.02,37.932 19.552,36.815 20.418,36.035 C19.183,35.905 18.072,35.71 17.085,35.45 C16.099,35.19 15.08,34.767 14.029,34.18 C12.979,33.596 12.106,32.87 11.412,32.003 C10.718,31.135 10.149,29.997 9.705,28.588 C9.261,27.18 9.039,25.554 9.039,23.712 C9.039,21.088 9.895,18.855 11.609,17.012 C10.805,15.04 10.881,12.829 11.835,10.379 C12.465,10.185 13.395,10.332 14.632,10.819 C15.868,11.307 16.772,11.725 17.347,12.071 C17.922,12.418 18.382,12.711 18.729,12.949 C20.746,12.386 22.827,12.104 24.973,12.104 C27.119,12.104 29.2,12.386 31.217,12.949 L32.452,12.169 C33.297,11.649 34.295,11.172 35.444,10.739 C36.594,10.305 37.471,10.185 38.078,10.381 C39.053,12.831 39.138,15.041 38.338,17.014 C40.048,18.857 40.906,21.09 40.906,23.714 C40.906,25.554 40.683,27.186 40.24,28.607 C39.795,30.027 39.22,31.164 38.517,32.021 C37.811,32.878 36.933,33.598 35.882,34.183 C34.83,34.769 33.812,35.191 32.825,35.453 C31.838,35.713 30.727,35.908 29.492,36.038 C30.619,37.012 31.182,38.551 31.182,40.654 L31.182,47.514 C31.182,47.904 31.318,48.23 31.589,48.49 C31.859,48.75 32.289,48.826 32.873,48.717 C37.903,47.047 42.006,44.039 45.183,39.693 C48.357,35.346 49.945,30.453 49.945,25.011 C49.945,20.481 48.827,16.303 46.595,12.477 L46.598,12.48 Z"/>
</svg>
