<svg xmlns="http://www.w3.org/2000/svg" width="100" height="99" viewBox="0 0 100 99">
  <g fill="#FFF" fill-rule="evenodd">
    <path d="M50.09,0.37 C22.53,0.37 0.183,22.835 0.183,50.547 C0.183,72.717 14.483,91.524 34.313,98.159 C36.807,98.623 37.723,97.069 37.723,95.745 C37.723,94.548 37.676,90.595 37.655,86.403 C23.77,89.438 20.84,80.483 20.84,80.483 C18.57,74.683 15.3,73.141 15.3,73.141 C10.77,70.027 15.64,70.091 15.64,70.091 C20.652,70.444 23.29,75.261 23.29,75.261 C27.742,82.933 34.966,80.715 37.814,79.433 C38.262,76.191 39.554,73.976 40.984,72.723 C29.898,71.455 18.244,67.153 18.244,47.926 C18.244,42.448 20.194,37.972 23.387,34.458 C22.869,33.194 21.16,28.091 23.87,21.18 C23.87,21.18 28.06,19.83 37.598,26.322 C41.578,25.21 45.848,24.652 50.09,24.634 C54.33,24.654 58.604,25.21 62.593,26.322 C72.118,19.83 76.303,21.179 76.303,21.179 C79.02,28.089 77.311,33.192 76.793,34.456 C79.993,37.97 81.929,42.446 81.929,47.924 C81.929,67.196 70.253,71.439 59.139,72.681 C60.929,74.239 62.525,77.291 62.525,81.973 C62.525,88.686 62.467,94.089 62.467,95.743 C62.467,97.078 63.365,98.643 65.895,98.15 C85.715,91.51 99.995,72.707 99.995,50.546 C99.997,22.834 77.653,0.37 50.09,0.37"/>
    <path d="M19.085,72.412 C18.975,72.662 18.585,72.736 18.23,72.564 C17.868,72.401 17.664,72.061 17.782,71.811 C17.889,71.555 18.28,71.484 18.642,71.655 C19.004,71.819 19.212,72.162 19.085,72.413 M21.107,74.678 C20.869,74.9 20.403,74.798 20.087,74.446 C19.761,74.096 19.7,73.629 19.941,73.404 C20.188,73.182 20.639,73.286 20.966,73.636 C21.293,73.989 21.356,74.454 21.108,74.678 M23.074,77.568 C22.769,77.782 22.269,77.581 21.96,77.135 C21.654,76.689 21.654,76.155 21.966,75.94 C22.276,75.725 22.769,75.918 23.082,76.36 C23.387,76.814 23.387,77.35 23.074,77.568 M25.77,80.36 C25.497,80.663 24.914,80.582 24.488,80.168 C24.051,79.763 23.93,79.188 24.204,78.886 C24.481,78.582 25.067,78.666 25.497,79.078 C25.93,79.482 26.062,80.06 25.77,80.36 M29.49,81.98 C29.37,82.374 28.807,82.553 28.242,82.386 C27.678,82.214 27.308,81.753 27.422,81.356 C27.54,80.961 28.102,80.776 28.672,80.953 C29.236,81.123 29.607,81.581 29.489,81.981 M33.574,82.282 C33.588,82.696 33.108,83.039 32.514,83.045 C31.918,83.06 31.436,82.725 31.429,82.318 C31.429,81.9 31.897,81.56 32.493,81.55 C33.087,81.538 33.573,81.87 33.573,82.282 M37.374,81.63 C37.444,82.035 37.034,82.45 36.444,82.56 C35.864,82.666 35.328,82.417 35.254,82.017 C35.184,81.603 35.602,81.187 36.181,81.081 C36.771,80.979 37.301,81.221 37.375,81.631"/>
  </g>
</svg>
