<svg xmlns="http://www.w3.org/2000/svg" width="50" height="50" viewBox="0 0 50 50">
  <g fill="none">
    <path fill="#0B3954" d="M0,24.958 C0,11.173 11.174,0 24.957,0 C38.74,0 49.915,11.173 49.915,24.958 C49.915,38.741 38.741,49.915 24.957,49.915 C11.174,49.915 0,38.74 0,24.958 Z"/>
    <path fill="#FFF" d="M30.684,6.222 L25.694,1.232 C24.614,0.152 22.864,0.152 21.784,1.232 L14.076,8.94 C12.996,10.02 12.996,11.77 14.076,12.848 L19.066,17.84 C20.146,18.92 21.896,18.92 22.976,17.84 L30.684,10.13 C31.764,9.05 31.764,7.3 30.684,6.222 Z M22.448,14.684 C21.815,15.317 20.788,15.317 20.158,14.684 L17.23,11.76 C16.598,11.126 16.598,10.1 17.23,9.468 L22.312,4.386 C22.945,3.754 23.972,3.753 24.602,4.386 L27.529,7.312 C28.161,7.945 28.161,8.97 27.529,9.602 L22.447,14.684 L22.448,14.684 Z M17.84,19.067 L12.848,14.077 C11.768,12.997 10.018,12.997 8.94,14.077 L1.23,21.785 C0.152,22.865 0.152,24.615 1.23,25.693 L6.222,30.683 C7.302,31.763 9.052,31.763 10.13,30.683 L17.84,22.975 C18.92,21.895 18.92,20.145 17.84,19.067 Z M9.603,27.529 C8.97,28.161 7.945,28.161 7.313,27.529 L4.386,24.602 C3.753,23.97 3.753,22.944 4.386,22.312 L9.468,17.23 C10.1,16.598 11.126,16.598 11.758,17.23 L14.685,20.157 C15.317,20.789 15.317,21.815 14.685,22.447 L9.603,27.529 Z" transform="translate(9 9)"/>
    <path fill="#0B3954" d="M30.876,19.283 L30.632,19.039 C29.854,18.259 28.586,18.259 27.807,19.039 L19.04,27.806 C18.26,28.586 18.26,29.852 19.04,30.631 L19.283,30.875 C20.063,31.655 21.329,31.655 22.108,30.875 L30.876,22.107 C31.656,21.327 31.656,20.061 30.876,19.282 L30.876,19.283 Z"/>
    <path fill="#FFF" d="M21.67,30.437 C21.132,30.975 20.26,30.977 19.72,30.437 L19.478,30.194 C18.94,29.656 18.94,28.784 19.478,28.246 L28.246,19.478 C28.784,18.94 29.656,18.94 30.194,19.478 L30.438,19.721 C30.975,20.261 30.976,21.133 30.438,21.671 L21.67,30.438 L21.67,30.437 Z"/>
  </g>
</svg>
